<?xml version="1.0" standalone="no"?>
<!DOCTYPE svg PUBLIC "-//W3C//DTD SVG 20010904//EN"
 "http://www.w3.org/TR/2001/REC-SVG-20010904/DTD/svg10.dtd">
<svg version="1.0" xmlns="http://www.w3.org/2000/svg"
 width="260.000000pt" height="260.000000pt" viewBox="0 0 260.000000 260.000000"
 preserveAspectRatio="xMidYMid meet">
<metadata>
Created by potrace 1.11, written by Peter Selinger 2001-2013
</metadata>
<g transform="translate(0.000000,260.000000) scale(0.100000,-0.100000)"
fill="#000000" stroke="none">
<path d="M510 2406 c-1 -17 -2 -181 -3 -364 l-2 -332 51 0 52 0 0 140 0 139
27 24 28 23 108 -160 c60 -88 114 -163 121 -166 7 -3 35 -3 61 0 l48 5 -131
195 c-71 107 -130 200 -130 205 0 6 56 77 125 159 69 83 122 152 119 155 -2 3
-28 5 -56 6 -50 1 -51 1 -100 -59 -28 -34 -60 -72 -72 -86 -12 -14 -48 -58
-80 -98 -32 -40 -61 -71 -63 -68 -3 2 -6 73 -6 157 l-2 153 -47 1 c-47 1 -48
0 -48 -29z"/>
<path d="M1089 2406 c0 -17 -1 -179 -1 -361 l0 -330 33 -5 c64 -11 68 -6 68
79 0 42 0 108 0 146 l1 71 50 -1 c27 0 53 -4 58 -10 5 -5 40 -68 77 -140 37
-71 70 -133 74 -137 3 -4 30 -8 59 -10 63 -5 65 1 18 85 -18 34 -54 101 -80
148 l-46 86 38 26 c61 43 77 79 77 177 0 74 -3 90 -25 122 -41 62 -97 79 -262
82 l-138 3 -1 -31z m242 -66 c49 -14 78 -48 84 -101 7 -54 -16 -105 -60 -131
-28 -16 -147 -29 -159 -18 -5 5 -8 96 -7 198 l1 62 53 0 c28 0 68 -5 88 -10z"/>
<path d="M1624 2429 c-2 -4 44 -106 102 -226 l107 -218 1 -137 1 -138 50 0 50
0 1 143 1 142 107 213 c58 117 104 217 102 221 -3 4 -26 7 -53 6 -45 0 -49 -3
-65 -35 -10 -19 -44 -91 -77 -159 -33 -68 -62 -125 -64 -128 -4 -4 -68 123
-128 255 -16 34 -35 62 -42 63 -57 5 -89 4 -93 -2z"/>
<path d="M617 1635 c-114 -29 -165 -122 -134 -246 17 -71 55 -104 197 -167 75
-34 106 -64 113 -108 16 -107 -98 -156 -253 -109 -71 21 -78 17 -72 -44 3 -34
8 -41 30 -46 15 -3 38 -8 52 -11 30 -6 156 -6 187 0 118 25 180 131 151 259
-12 54 -55 98 -131 134 -154 72 -177 91 -179 152 -3 94 99 135 215 86 53 -22
63 -19 75 24 7 21 12 41 12 44 0 11 -103 37 -160 41 -30 2 -77 -2 -103 -9z"/>
<path d="M1033 1633 c-6 -2 -8 -412 -3 -695 0 -27 2 -28 49 -28 l49 0 1 148
c0 81 0 156 0 167 1 19 7 20 152 19 93 -1 154 -5 158 -12 3 -5 5 -80 5 -165
l-1 -155 38 -4 c21 -2 43 -2 48 0 8 3 11 119 11 366 l0 362 -47 -1 -48 -2 -2
-129 c0 -71 -2 -139 -2 -151 -1 -23 -2 -23 -156 -23 -117 0 -155 3 -156 13 0
6 -1 75 -2 152 l-2 140 -42 0 c-23 0 -45 -1 -50 -2z"/>
<path d="M1639 1615 c-2 -25 2 -59 7 -64 1 -2 46 -3 99 -2 85 2 95 0 96 -16 0
-10 1 -154 1 -320 l1 -303 49 0 48 0 0 321 0 320 88 -1 c127 -3 118 -5 118 40
0 22 -5 41 -11 41 -5 1 -119 2 -252 3 -236 1 -243 0 -244 -19z"/>
<path d="M695 835 c-146 -33 -223 -166 -219 -378 5 -249 128 -376 342 -357 80
8 130 30 177 78 71 73 100 178 92 327 -5 100 -8 114 -31 169 -56 134 -199 198
-361 161z m167 -94 c37 -14 79 -64 102 -119 29 -71 27 -238 -3 -308 -53 -122
-168 -162 -278 -98 -31 18 -49 39 -70 81 -26 53 -28 67 -28 173 0 105 2 120
28 172 48 99 148 139 249 99z"/>
<path d="M1149 781 c-2 -185 -1 -663 2 -666 5 -4 39 -8 70 -6 l27 1 0 112 c0
62 1 125 1 139 1 26 2 26 94 31 105 6 153 28 204 94 26 35 28 44 28 133 0 90
-2 98 -28 132 -47 62 -107 81 -264 83 l-133 3 -1 -56z m262 -52 c90 -45 87
-192 -6 -238 -15 -7 -57 -14 -93 -15 l-64 -1 0 125 c0 69 1 131 1 138 1 20
117 13 162 -9z"/>
<path d="M1779 819 c-6 -12 -15 -34 -19 -48 -5 -14 -31 -91 -60 -171 -119
-332 -170 -482 -166 -489 2 -3 26 -5 53 -3 l48 4 19 61 c11 34 28 85 38 113
l19 50 114 -1 c63 0 116 -3 118 -5 2 -3 20 -52 39 -110 l36 -105 56 -3 55 -3
-45 128 c-52 145 -155 438 -186 528 -11 33 -22 62 -24 64 -2 2 -21 6 -43 8
-33 3 -42 0 -52 -18z m90 -263 c23 -65 41 -122 41 -127 0 -4 -38 -8 -85 -7
-47 1 -84 5 -83 9 2 3 21 60 43 126 22 66 41 120 42 119 1 0 20 -54 42 -120z"/>
</g>
</svg>
